HIERARCHY
ROOT Hips
{
 OFFSET 0.000000 0.000000 0.000000
 CHANNELS 6 Xposition Yposition Zposition Yrotation Xrotation Zrotation
 JOINT Chest
 {
  OFFSET 0.000000 10.080317 -0.001081
  CHANNELS 3 Yrotation Xrotation Zrotation
  JOINT Chest2
  {
   OFFSET 0.000000 11.096852 0.001963
   CHANNELS 3 Yrotation Xrotation Zrotation
   JOINT Chest3
   {
    OFFSET 0.000000 10.026525 0.000000
    CHANNELS 3 Yrotation Xrotation Zrotation
    JOINT Chest4
    {
     OFFSET 0.000000 10.026525 0.000000
     CHANNELS 3 Yrotation Xrotation Zrotation
     JOINT Neck
     {
      OFFSET 0.000000 14.108171 0.000000
      CHANNELS 3 Yrotation Xrotation Zrotation
      JOINT Head
      {
       OFFSET 0.000000 9.333493 0.004668
       CHANNELS 3 Yrotation Xrotation Zrotation
       End Site
       {
        OFFSET 0.000000 17.851786 0.002438
       }
      }
     }
     JOINT RightCollar
     {
      OFFSET -3.071622 7.873185 0.000000
      CHANNELS 3 Yrotation Xrotation Zrotation
      JOINT RightShoulder
      {
       OFFSET -14.378659 0.000000 0.000000
       CHANNELS 3 Yrotation Xrotation Zrotation
       JOINT RightElbow
       {
        OFFSET -30.778728 0.000000 0.000000
        CHANNELS 3 Yrotation Xrotation Zrotation
        JOINT RightWrist
        {
         OFFSET -25.164217 0.000000 0.000000
         CHANNELS 3 Yrotation Xrotation Zrotation
         End Site
         {
          OFFSET -18.796788 0.000000 0.000000
         }
        }
       }
      }
     }
     JOINT LeftCollar
     {
      OFFSET 3.071622 7.873185 0.000000
      CHANNELS 3 Yrotation Xrotation Zrotation
      JOINT LeftShoulder
      {
       OFFSET 14.378659 0.000000 0.000000
       CHANNELS 3 Yrotation Xrotation Zrotation
       JOINT LeftElbow
       {
        OFFSET 30.778728 0.000000 0.000000
        CHANNELS 3 Yrotation Xrotation Zrotation
        JOINT LeftWrist
        {
         OFFSET 25.164217 0.000000 0.000000
         CHANNELS 3 Yrotation Xrotation Zrotation
         End Site
         {
          OFFSET 18.796788 0.000000 0.000000
         }
        }
       }
      }
     }
    }
   }
  }
 }
 JOINT RightHip
 {
  OFFSET -8.194923 0.005295 0.000540
  CHANNELS 3 Yrotation Xrotation Zrotation
  JOINT RightKnee
  {
   OFFSET 0.000000 -42.473320 -0.000511
   CHANNELS 3 Yrotation Xrotation Zrotation
   JOINT RightAnkle
   {
    OFFSET 0.000000 -41.474259 -0.000865
    CHANNELS 3 Yrotation Xrotation Zrotation
    JOINT RightToe
    {
     OFFSET 0.000000 -7.354994 16.712725
     CHANNELS 3 Yrotation Xrotation Zrotation
     End Site
     {
      OFFSET 0.000000 -1.553903 6.764158
     }
    }
   }
  }
 }
 JOINT LeftHip
 {
  OFFSET 8.194923 0.005295 0.000540
  CHANNELS 3 Yrotation Xrotation Zrotation
  JOINT LeftKnee
  {
   OFFSET 0.000000 -42.473320 -0.000511
   CHANNELS 3 Yrotation Xrotation Zrotation
   JOINT LeftAnkle
   {
    OFFSET 0.000000 -41.474259 -0.000865
    CHANNELS 3 Yrotation Xrotation Zrotation
    JOINT LeftToe
    {
     OFFSET 0.000000 -7.354994 16.712725
     CHANNELS 3 Yrotation Xrotation Zrotation
     End Site
     {
      OFFSET 0.000000 -1.553903 6.764158
     }
    }
   }
  }
 }
}
MOTION
Frames: 14
Frame Time: 0.016667
-149.677427 93.127542 -110.366798 -44.034380 0.061937 0.608155 7.542176 4.053150 2.517508 3.317195 1.870082 1.023402 3.317195 1.870082 1.023402 2.484551 1.408170 0.757356 -0.482327 22.342137 2.003155 -1.422009 5.344039 3.750039 -5.352723 -1.703016 13.537598 3.423576 -5.500540 53.540019 23.062069 14.206708 13.481819 -3.881615 3.039489 -14.292424 -12.728793 1.186501 -8.719133 0.102430 -11.838991 -73.407305 -17.967135 29.170923 -17.003497 9.519909 7.985870 16.831105 -12.446361 5.360523 -2.767434 -11.237551 -1.421571 3.440076 -7.645115 -2.584739 1.589630 0.026379 -0.151938 0.171226 18.725182 -2.648036 2.913952 14.183268 4.793877 -0.846880 11.335207 1.408315 -1.865561 -0.047575 0.316107 -0.681910
-149.856462 93.114440 -110.333125 -43.218917 0.046068 0.619253 7.501946 4.048193 2.589023 3.312534 1.851614 1.042862 3.312534 1.851614 1.042862 2.481032 1.394416 0.772066 -0.425737 22.281136 2.030072 -1.329034 5.229586 3.784257 -5.347032 -1.624254 13.623390 3.388240 -5.373845 53.691952 23.236948 14.286924 13.595220 -3.866632 3.068834 -14.329244 -12.703530 1.239050 -8.760682 0.037403 -11.610357 -73.648345 -18.395946 29.183945 -17.325310 9.601083 7.913289 17.145937 -13.004697 5.586354 -2.721676 -11.359720 -1.459377 3.470004 -7.750162 -2.726568 1.493342 0.028625 -0.174234 0.214629 17.736349 -2.080433 3.026247 14.440721 3.630706 -0.785744 11.483161 1.885783 -2.071476 -0.048531 0.386711 -0.513080
-150.022341 93.111486 -110.261597 -42.401271 0.035045 0.715471 7.457998 4.080275 2.564259 3.304229 1.850302 1.045169 3.304229 1.850302 1.045169 2.474799 1.393430 0.773829 -0.362460 22.215750 2.076201 -1.229417 5.107296 3.851348 -5.324228 -1.578548 13.740978 3.422714 -5.281515 53.903306 23.242632 14.391714 13.634982 -3.838255 3.060418 -14.369327 -12.699491 1.253428 -8.776540 -0.072995 -11.422846 -73.823400 -18.743365 29.010206 -17.546671 9.597170 7.834159 17.446560 -13.687243 5.780737 -2.797499 -11.435417 -1.479493 3.497267 -7.800063 -2.887266 1.425848 0.017056 -0.176841 0.252989 17.035480 -1.663936 3.065490 14.793152 2.788859 -0.773550 11.147038 2.127618 -2.488304 -0.039725 0.505919 -0.168218
-150.179871 93.116906 -110.184774 -41.560544 0.022129 0.849160 7.413355 4.119100 2.534552 3.285188 1.859870 1.037059 3.285188 1.859870 1.037059 2.460526 1.400529 0.767751 -0.314337 22.154932 2.105015 -1.152269 4.993514 3.891211 -5.316632 -1.529632 13.836769 3.485938 -5.242657 54.229719 23.128019 14.456033 13.649083 -3.828176 3.075264 -14.382423 -12.734365 1.258103 -8.829088 -0.187961 -11.357722 -73.934840 -19.041697 28.899480 -17.730076 9.699811 7.831218 17.955790 -14.398231 5.950215 -2.904196 -11.467784 -1.491448 3.518564 -7.926229 -3.019830 1.334291 0.041649 -0.203312 0.303970 16.851405 -1.446002 3.009684 14.495827 2.282930 -0.680077 10.837994 2.218386 -3.165701 -0.022860 0.590370 0.284310
-150.311032 93.123856 -110.097217 -40.727929 -0.018569 0.976012 7.386228 4.178129 2.496549 3.269198 1.883693 1.025041 3.269198 1.883693 1.025041 2.448526 1.418305 0.758658 -0.300088 22.095561 2.125078 -1.133863 4.883351 3.924609 -5.330951 -1.442864 13.924200 3.539831 -5.244920 54.661631 22.961491 14.538694 13.607047 -3.873160 3.073692 -14.381181 -12.819199 1.267767 -8.886422 -0.315167 -11.429180 -73.929021 -19.349125 29.019186 -17.897322 9.880806 7.877993 18.624902 -14.937960 6.105334 -3.015095 -11.574560 -1.446192 3.524038 -8.126187 -3.126127 1.251546 0.061921 -0.264165 0.360619 17.143277 -1.427192 2.972121 13.732041 2.222275 -0.610977 10.487153 1.993412 -4.000213 -0.009044 0.699444 0.778816
-150.390806 93.126575 -110.030463 -39.929978 -0.058972 1.164543 7.405075 4.225746 2.438454 3.259548 1.920007 1.007114 3.259548 1.920007 1.007114 2.441275 1.445429 0.745046 -0.320411 22.042183 2.120217 -1.170839 4.784830 3.922483 -5.353838 -1.379437 13.959137 3.550572 -5.221214 55.219394 22.814816 14.611537 13.579483 -3.942914 3.075133 -14.380794 -12.939552 1.243272 -8.972539 -0.438728 -11.574491 -73.855347 -19.645262 29.220761 -18.026904 10.077791 7.946625 19.317792 -15.277341 6.194706 -3.160988 -11.770474 -1.370140 3.503043 -8.401792 -3.296943 1.174057 0.088748 -0.242784 0.408571 17.729529 -1.574988 2.946565 13.074632 2.622566 -0.686015 9.725703 1.335618 -4.796418 0.012857 0.910299 1.201725
-150.403370 93.120510 -109.976570 -39.112820 -0.081991 1.361742 7.427823 4.291150 2.377063 3.256002 1.963500 0.984835 3.256002 1.963500 0.984835 2.438605 1.477925 0.728114 -0.391492 21.991464 2.097361 -1.294474 4.692532 3.901990 -5.414191 -1.334362 13.937662 3.597409 -5.134896 55.813678 22.738205 14.646486 13.574922 -3.982092 3.095406 -14.368688 -13.109662 1.187032 -9.047946 -0.589058 -11.766444 -73.708405 -19.861773 29.209892 -18.069710 10.138420 7.963279 19.762006 -15.511930 6.230273 -3.328305 -12.016831 -1.294741 3.489170 -8.726110 -3.436172 1.114808 0.107036 -0.215316 0.440481 18.337645 -1.917577 2.878418 12.305558 3.496272 -0.802141 8.990129 0.265633 -5.538685 0.021401 1.157447 1.539737
-150.374911 93.107688 -109.941074 -38.331921 -0.110557 1.546894 7.466641 4.340809 2.344133 3.267549 1.996923 0.963851 3.267549 1.996923 0.963851 2.447271 1.502900 0.712159 -0.475181 21.969039 2.070518 -1.438947 4.653109 3.877317 -5.458365 -1.262467 13.911921 3.695066 -4.976856 56.373771 22.762959 14.633050 13.685513 -4.022716 3.082735 -14.349513 -13.303476 1.148989 -9.129034 -0.734218 -12.025506 -73.534837 -19.947910 28.885454 -18.047470 10.036953 7.903607 19.767740 -15.655788 6.263161 -3.490862 -12.294404 -1.245110 3.495891 -9.041298 -3.574312 1.064996 0.114597 -0.158467 0.443662 18.742540 -2.507111 2.777110 11.504872 4.819775 -0.861516 8.547066 -1.069735 -6.300937 0.029541 1.400957 1.827687
-150.305066 93.088884 -109.907230 -37.607359 -0.112730 1.728477 7.515403 4.388176 2.290152 3.289005 2.021778 0.950804 3.289005 2.021778 0.950804 2.463359 1.521506 0.702168 -0.558248 21.970758 2.032439 -1.578423 4.658161 3.831669 -5.449083 -1.175134 13.884227 3.875133 -4.740154 56.797274 22.908701 14.557393 13.876669 -4.097629 3.081920 -14.283317 -13.459838 1.105106 -9.232836 -0.772706 -12.313199 -73.345271 -20.061113 28.422228 -18.090458 9.947045 7.853876 19.460295 -15.772322 6.283229 -3.664924 -12.562910 -1.261602 3.508742 -9.346740 -3.689920 1.038156 0.112744 -0.074248 0.433800 18.637185 -3.257323 2.707235 11.185824 6.423628 -0.960791 8.275091 -2.343955 -6.859801 0.043773 1.471435 1.922778
-150.215559 93.060815 -109.876257 -36.962037 -0.082835 1.925466 7.579172 4.418697 2.236222 3.319575 2.033434 0.941255 3.319575 2.033434 0.941255 2.486294 1.530245 0.694842 -0.633196 21.986625 1.989097 -1.701320 4.689013 3.773915 -5.399651 -1.065069 13.833219 4.115402 -4.486245 57.137858 23.177315 14.509923 14.218272 -4.175174 3.083310 -14.205958 -13.550758 1.045784 -9.349694 -0.684581 -12.650640 -73.144364 -20.248240 27.989718 -18.280639 9.853311 7.826308 19.084423 -15.899001 6.275272 -3.849760 -12.830177 -1.322813 3.536980 -9.590914 -3.812442 1.003179 0.125409 0.040036 0.417685 18.236846 -4.101733 2.799715 11.199947 8.179144 -1.196161 8.110380 -3.318671 -7.013598 0.069112 1.301912 1.665515
-150.122990 93.027572 -109.830194 -36.436478 -0.036447 2.036954 7.688262 4.436565 2.225080 3.370873 2.035524 0.936345 3.370873 2.035524 0.936345 2.524776 1.531867 0.690978 -0.702738 22.017260 1.954551 -1.816450 4.747345 3.730194 -5.388606 -0.993377 13.833357 4.377103 -4.210679 57.360357 23.502897 14.611121 14.648661 -4.224710 3.100171 -14.097920 -13.618834 0.962228 -9.433810 -0.502733 -12.969322 -72.992173 -20.524856 27.664282 -18.544981 9.781367 7.766212 18.657128 -16.041167 6.274480 -3.973719 -13.001097 -1.402988 3.560638 -9.773920 -3.910570 0.993803 0.109177 0.136941 0.393174 17.806382 -4.893958 3.103058 11.411551 9.799926 -1.496097 8.128873 -3.904285 -6.854935 0.064809 0.947923 1.166009
-150.036825 92.993052 -109.769534 -36.062170 0.010614 2.088515 7.857201 4.441804 2.260915 3.448232 2.034680 0.938337 3.448232 2.034680 0.938337 2.582784 1.531366 0.692220 -0.745618 22.053747 1.935631 -1.887566 4.816057 3.707113 -5.379563 -0.988514 13.861577 4.708614 -3.932191 57.536202 23.808503 14.787857 15.112679 -4.265171 3.142706 -13.982010 -13.668918 0.838168 -9.494950 -0.286634 -13.200424 -72.871023 -20.930501 27.335082 -18.899829 9.714777 7.726136 18.311560 -16.173819 6.282338 -4.057722 -13.089679 -1.484460 3.587733 -9.897292 -3.992938 0.991711 0.100819 0.214185 0.365206 17.251254 -5.552807 3.597435 11.974720 11.132829 -1.749445 8.279063 -4.126266 -6.605115 0.049549 0.549152 0.582149
-149.947569 92.965452 -109.665132 -35.831854 0.058453 2.102958 8.046669 4.439640 2.283503 3.539069 2.028043 0.939426 3.539069 2.028043 0.939426 2.650914 1.526536 0.692775 -0.751381 22.107450 1.940266 -1.897621 4.916115 3.715848 -5.348684 -0.978436 13.916949 5.096538 -3.691022 57.647967 24.060985 15.025204 15.544481 -4.310596 3.177291 -13.851298 -13.684995 0.731745 -9.514894 -0.074304 -13.327068 -72.753750 -21.482634 26.987669 -19.311420 9.659456 7.691572 18.080430 -16.331519 6.280149 -4.143246 -13.110058 -1.531057 3.597175 -9.898449 -4.060810 1.026641 0.081790 0.262170 0.339389 16.611818 -6.014820 4.154993 12.655559 12.081405 -1.913190 8.698921 -4.089384 -6.328034 0.023515 0.207808 -0.005692
-149.856812 92.946453 -109.520719 -35.678527 0.086677 2.142032 8.224038 4.424749 2.297625 3.624715 2.017859 0.932767 3.624715 2.017859 0.932767 2.715182 1.518994 0.687559 -0.716084 22.168815 1.958124 -1.836924 5.029304 3.736912 -5.283799 -0.950922 13.992380 5.525844 -3.511791 57.754099 24.230187 15.240014 15.920339 -4.398426 3.206094 -13.738597 -13.658254 0.661869 -9.499672 0.165402 -13.390167 -72.647520 -22.160482 26.665477 -19.841601 9.584635 7.680855 18.094048 -16.528628 6.280599 -4.276155 -13.040495 -1.564054 3.594446 -9.934811 -4.099262 1.089910 0.069402 0.273609 0.312630 16.020100 -6.301584 4.647570 13.139136 12.624388 -1.896526 9.240560 -3.792896 -6.054766 -0.002432 -0.064674 -0.598092
